<svg viewBox="0 0 1200 340" xmlns="http://www.w3.org/2000/svg" role="img" aria-labelledby="ttl dsc">
  <title id="ttl">OrbSync</title>
  <desc id="dsc">Um time de agentes de IA construindo seu projeto, ao vivo.</desc>
  <defs>
    <radialGradient id="glow" cx="20%" cy="18%" r="65%">
      <stop offset="0%" stop-color="#ffae3d" stop-opacity="0.18"/>
      <stop offset="100%" stop-color="#ffae3d" stop-opacity="0"/>
    </radialGradient>
    <linearGradient id="bg" x1="0" y1="0" x2="0" y2="1">
      <stop offset="0" stop-color="#10131a"/>
      <stop offset="1" stop-color="#0b0c0e"/>
    </linearGradient>
  </defs>
  <rect width="1200" height="340" rx="22" fill="#0b0c0e"/>
  <rect width="1200" height="340" rx="22" fill="url(#bg)"/>
  <rect width="1200" height="340" rx="22" fill="url(#glow)"/>
  <rect x="0.75" y="0.75" width="1198.5" height="338.5" rx="22" fill="none" stroke="#ffffff" stroke-opacity="0.08"/>

  <g transform="translate(92,58) scale(3.25)">
    <g transform="rotate(-16 32 41)">
      <ellipse cx="32" cy="41" rx="28" ry="11.5" stroke="#ffae3d" stroke-width="2.4" fill="none"/>
      <circle cx="60" cy="41" r="3.4" fill="#ffae3d"/>
    </g>
    <g stroke="#e7ebf0" stroke-width="2.6" stroke-linecap="round" stroke-linejoin="round" fill="none">
      <circle cx="32" cy="6.5" r="2.6"/>
      <line x1="32" y1="9.1" x2="32" y2="16"/>
      <rect x="17" y="16" width="30" height="23.5" rx="8"/>
      <rect x="22.5" y="21" width="19" height="13.5" rx="5.5"/>
    </g>
    <g fill="#e7ebf0">
      <rect x="10.5" y="22" width="6.5" height="11" rx="3"/>
      <rect x="47" y="22" width="6.5" height="11" rx="3"/>
      <rect x="26.3" y="25.2" width="3" height="5" rx="1.5"/>
      <rect x="34.7" y="25.2" width="3" height="5" rx="1.5"/>
    </g>
  </g>

  <text x="384" y="152" font-family="Segoe UI, system-ui, sans-serif" font-size="78" font-weight="800" fill="#ffffff" letter-spacing="-1.5">Orb<tspan fill="#ffae3d">Sync</tspan></text>
  <text x="388" y="200" font-family="Segoe UI, system-ui, sans-serif" font-size="25" font-weight="500" fill="#8b97a4">Um time de agentes de IA construindo seu projeto — ao vivo.</text>

  <g font-family="Segoe UI, system-ui, sans-serif" font-size="16" font-weight="600">
    <g><rect x="388" y="236" width="176" height="36" rx="18" fill="#ffffff" fill-opacity="0.05" stroke="#ffae3d" stroke-opacity="0.45"/><text x="476" y="259" text-anchor="middle" fill="#ffc874">Líder + agentes</text></g>
    <g><rect x="576" y="236" width="150" height="36" rx="18" fill="#ffffff" fill-opacity="0.05" stroke="#ffffff" stroke-opacity="0.14"/><text x="651" y="259" text-anchor="middle" fill="#cfd6de">Fluxo ao vivo</text></g>
    <g><rect x="738" y="236" width="232" height="36" rx="18" fill="#ffffff" fill-opacity="0.05" stroke="#ffffff" stroke-opacity="0.14"/><text x="854" y="259" text-anchor="middle" fill="#cfd6de">Jogo · Site · Design · Marketing</text></g>
  </g>
</svg>
